<svg xmlns="http://www.w3.org/2000/svg" xmlns:xlink="http://www.w3.org/1999/xlink" version="1.1" x="0px" y="0px" viewBox="0 0 100 125" style="enable-background:new 0 0 100 100;" xml:space="preserve"><g><path d="M65.2,45.6l-24-10.8c-0.6-0.3-1.3-0.4-2-0.4h0c-1.6,0-3.1,0.8-4.1,2.2c-0.9,1.4-1,3.1-0.4,4.6l3.9,8.9   l-3.9,8.9c-0.7,1.5-0.5,3.2,0.4,4.6c0.9,1.4,2.4,2.2,4.1,2.2c0.7,0,1.4-0.1,2-0.4l24-10.8c1.8-0.8,2.9-2.5,2.9-4.4   S67,46.4,65.2,45.6z M64,51.7L40,62.5c-0.3,0.1-0.5,0.2-0.8,0.2c-1.2,0-2.2-1.3-1.7-2.6l4.1-9.4c0.2-0.5,0.2-1,0-1.5l-4.1-9.4   c-0.6-1.3,0.4-2.6,1.7-2.6c0.3,0,0.5,0.1,0.8,0.2l24,10.8C65.5,49,65.5,51,64,51.7z"/></g><text x="0" y="115" fill="#000000" font-size="5px" font-weight="bold" font-family="'Helvetica Neue', Helvetica, Arial-Unicode, Arial, Sans-serif">Created by Mark Jayvee Pabilonia</text><text x="0" y="120" fill="#000000" font-size="5px" font-weight="bold" font-family="'Helvetica Neue', Helvetica, Arial-Unicode, Arial, Sans-serif">from the Noun Project</text></svg>